<?xml version="1.0" encoding="iso-8859-1"?>
<!-- Generator: Adobe Illustrator 18.1.0, SVG Export Plug-In . SVG Version: 6.00 Build 0)  -->
<svg version="1.1" id="Layer_1" xmlns="http://www.w3.org/2000/svg" xmlns:xlink="http://www.w3.org/1999/xlink" x="0px" y="0px"
	 viewBox="0 0 97.25 69.062" style="enable-background:new 0 0 97.25 69.062;" xml:space="preserve">
<polygon style="fill:#D969F4;" points="96.635,68.952 48.687,0.48 0.738,68.952 "/>
<g>
	<path style="fill:#003300;" d="M39.651,51.68h0.031c0.59-0.775,1.148-1.086,1.985-1.086c1.567,0,2.808,1.552,2.808,3.505
		c0,1.784-1.21,3.257-2.699,3.257c-0.838,0-1.365-0.295-2.063-1.179h-0.031v3.924h-1.969v-9.367h1.938V51.68z M39.713,54.083
		c0,0.837,0.621,1.52,1.412,1.52c0.775,0,1.318-0.621,1.318-1.52c0-0.854-0.62-1.55-1.38-1.55S39.713,53.215,39.713,54.083z"/>
	<path style="fill:#003300;" d="M52.492,55.433v1.799h-6.747l3.288-4.188c0.993-1.272,1.334-1.954,1.334-2.621
		c0-0.743-0.542-1.287-1.288-1.287c-0.822,0-1.179,0.544-1.271,1.893h-2.141c0.031-1.257,0.279-1.923,0.947-2.621
		c0.636-0.683,1.582-1.055,2.652-1.055c1.892,0,3.226,1.21,3.226,2.946c0,0.527-0.109,0.977-0.373,1.567
		c-0.184,0.465-0.387,0.822-0.681,1.24l-0.574,0.838c-0.124,0.186-0.496,0.681-0.867,1.163l-0.264,0.325H52.492z"/>
	<path style="fill:#003300;" d="M60.726,55.433v1.799H53.98l3.288-4.188c0.993-1.272,1.333-1.954,1.333-2.621
		c0-0.743-0.542-1.287-1.286-1.287c-0.823,0-1.179,0.544-1.272,1.893h-2.141c0.032-1.257,0.279-1.923,0.946-2.621
		c0.636-0.683,1.583-1.055,2.653-1.055c1.892,0,3.226,1.21,3.226,2.946c0,0.527-0.109,0.977-0.372,1.567
		c-0.187,0.465-0.388,0.822-0.683,1.24l-0.574,0.838c-0.124,0.186-0.497,0.681-0.869,1.163l-0.263,0.325H60.726z"/>
</g>
</svg>
